<svg xmlns="http://www.w3.org/2000/svg" width="139.301" height="125.821" viewBox="0 0 139.301 125.821"><g transform="translate(-1216 -464)"><rect width="139.301" height="125.821" rx="4" transform="translate(1216 464)" fill="#fff"/><text transform="translate(1285 555)" font-size="14" font-family="NotoSans-Regular, Noto Sans"><tspan x="-35.959" y="0">Business &amp;</tspan><tspan x="-37.044" y="19">Accounting</tspan></text><g transform="translate(1263 448.276)"><path d="M60.37,77.693H17.655V40.515a.791.791,0,0,1,.791-.791H59.579a.791.791,0,0,1,.791.791Z" transform="translate(-16.073)" fill="#b9785f"/><path d="M60.364,159.709a2.063,2.063,0,0,1-2.589-2.017,2.085,2.085,0,1,1-4.171,0,2.085,2.085,0,1,1-4.171,0,2.085,2.085,0,1,1-4.171,0,2.085,2.085,0,1,1-4.171,0,2.085,2.085,0,1,1-4.171,0,2.085,2.085,0,1,1-4.171,0,2.085,2.085,0,1,1-4.171,0,2.085,2.085,0,1,1-4.171,0,2.085,2.085,0,1,1-4.171,0,2.063,2.063,0,0,1-2.589,2.017v1.6a3.382,3.382,0,0,0,2.589-.6,3.661,3.661,0,0,0,4.171,0,3.661,3.661,0,0,0,4.171,0,3.661,3.661,0,0,0,4.171,0,3.661,3.661,0,0,0,4.171,0,3.661,3.661,0,0,0,4.171,0,3.661,3.661,0,0,0,4.171,0,3.661,3.661,0,0,0,4.171,0,3.661,3.661,0,0,0,4.171,0,3.661,3.661,0,0,0,4.171,0,3.382,3.382,0,0,0,2.589.6v-1.6h0Z" transform="translate(-16.067 -107.397)" fill="#aa6455"/><rect width="22.148" height="14.238" transform="translate(5.537 55.544)" fill="#b4e1fa"/><path d="M152.315,237.759h-1.582L141.241,225.1h1.582Z" transform="translate(-128.585 -168.768)" fill="#daf0fd"/><g transform="translate(0 48.425)"><path d="M188.266,140.783h0a2.085,2.085,0,0,1-2.085-2.085v-1.87h4.171v1.87A2.085,2.085,0,0,1,188.266,140.783Z" transform="translate(-169.498 -136.828)" fill="#d2555a"/><path d="M281.358,140.783h0a2.085,2.085,0,0,1-2.085-2.085v-1.87h4.171v1.87A2.086,2.086,0,0,1,281.358,140.783Z" transform="translate(-254.248 -136.828)" fill="#d2555a"/><path d="M95.176,140.783h0a2.085,2.085,0,0,1-2.085-2.085v-1.87h4.171v1.87A2.086,2.086,0,0,1,95.176,140.783Z" transform="translate(-84.749 -136.828)" fill="#d2555a"/><path d="M2.085,140.783h0A2.085,2.085,0,0,1,0,138.7v-1.87H4.171v1.87A2.085,2.085,0,0,1,2.085,140.783Z" transform="translate(0 -136.828)" fill="#d2555a"/><path d="M374.448,140.783h0a2.085,2.085,0,0,1-2.085-2.085v-1.87h4.171v1.87A2.085,2.085,0,0,1,374.448,140.783Z" transform="translate(-338.997 -136.828)" fill="#d2555a"/></g><g transform="translate(12.512 48.425)"><path d="M141.721,140.783h0a2.085,2.085,0,0,1-2.085-2.085v-1.87h4.171v1.87A2.085,2.085,0,0,1,141.721,140.783Z" transform="translate(-139.636 -136.828)" fill="#c7cfe2"/><path d="M327.9,140.783h0a2.085,2.085,0,0,1-2.085-2.085v-1.87h4.171v1.87A2.085,2.085,0,0,1,327.9,140.783Z" transform="translate(-309.135 -136.828)" fill="#c7cfe2"/></g><path d="M467.539,140.783h0a2.085,2.085,0,0,1-2.085-2.085v-1.87h4.171v1.87A2.085,2.085,0,0,1,467.539,140.783Z" transform="translate(-423.746 -88.403)" fill="#d2555a"/><g transform="translate(4.171 48.425)"><path d="M420.994,140.783h0a2.085,2.085,0,0,1-2.085-2.085v-1.87h4.171v1.87A2.086,2.086,0,0,1,420.994,140.783Z" transform="translate(-385.543 -136.828)" fill="#c7cfe2"/><path d="M48.63,140.783h0a2.085,2.085,0,0,1-2.085-2.085v-1.87h4.171v1.87A2.085,2.085,0,0,1,48.63,140.783Z" transform="translate(-46.545 -136.828)" fill="#c7cfe2"/><path d="M234.812,140.783h0a2.085,2.085,0,0,1-2.085-2.085v-1.87H236.9v1.87A2.085,2.085,0,0,1,234.812,140.783Z" transform="translate(-216.044 -136.828)" fill="#c7cfe2"/></g><g transform="translate(0 42.097)"><path d="M190.353,72.535h-4.171l.431-6.328H190.5Z" transform="translate(-169.499 -66.207)" fill="#ff6464"/><path d="M281.982,72.535h-4.171l-.144-6.328h3.883Z" transform="translate(-252.786 -66.207)" fill="#ff6464"/><path d="M97.262,72.535H93.091L94.1,66.207h3.883Z" transform="translate(-84.749 -66.207)" fill="#ff6464"/><path d="M4.171,72.535H0l1.582-6.328H5.465Z" transform="translate(0 -66.207)" fill="#ff6464"/><path d="M369.229,72.535h-4.171l-.719-6.328h3.883Z" transform="translate(-331.692 -66.207)" fill="#ff6464"/></g><g transform="translate(12.512 42.097)"><path d="M143.807,72.535h-4.171l.719-6.328h3.883Z" transform="translate(-139.636 -66.207)" fill="#eff2fa"/><path d="M325.605,72.535h-4.171L321,66.207h3.883Z" transform="translate(-304.751 -66.207)" fill="#eff2fa"/></g><path d="M456.474,72.535H452.3l-1.294-6.328h3.883Z" transform="translate(-410.595 -24.11)" fill="#ff6464"/><g transform="translate(4.171 42.097)"><path d="M412.851,72.535H408.68l-1.007-6.328h3.883Z" transform="translate(-375.313 -66.207)" fill="#eff2fa"/><path d="M50.717,72.535H46.546l1.294-6.328h3.883Z" transform="translate(-46.546 -66.207)" fill="#eff2fa"/><path d="M236.9,72.535h-4.171l.144-6.328h3.883Z" transform="translate(-216.044 -66.207)" fill="#eff2fa"/></g><path d="M45.088,456.2H.791A.791.791,0,0,1,0,455.411H0a.791.791,0,0,1,.791-.791h44.3a.791.791,0,0,1,.791.791h0A.791.791,0,0,1,45.088,456.2Z" transform="translate(0 -377.718)" fill="#c7cfe2"/><g transform="translate(1.582 75.32)" opacity="0.97"><rect width="42.715" height="1.582" fill="#afb9d2"/></g><rect width="42.715" height="3.164" transform="translate(1.582 72.156)" fill="#aa6455"/><g transform="translate(4.746 54.753)"><path d="M75.113,209.03v12.656H54.547V209.03H75.113m.791-1.582H53.756a.791.791,0,0,0-.791.791v14.238a.791.791,0,0,0,.791.791H75.9a.791.791,0,0,0,.791-.791V208.239a.791.791,0,0,0-.791-.791Z" transform="translate(-52.965 -207.448)" fill="#5b5d6e"/><path d="M361.8,207.448h-7.91a.791.791,0,0,0-.791.791v19.775H362.6V208.239A.791.791,0,0,0,361.8,207.448Z" transform="translate(-326.208 -207.448)" fill="#5b5d6e"/></g><rect width="6.328" height="12.656" transform="translate(33.223 56.335)" fill="#b4e1fa"/><rect width="20.566" height="1.582" transform="translate(6.328 56.335)" fill="#a0d2f0"/><rect width="6.328" height="1.582" transform="translate(33.223 56.335)" fill="#a0d2f0"/><path d="M100.932,237.759H97.768L88.276,225.1H91.44Z" transform="translate(-80.366 -168.768)" fill="#a0d2f0"/><path d="M144.01,226.685l-1.186-1.582h-1.582l1.187,1.582Z" transform="translate(-128.585 -168.768)" fill="#b4e1fa"/><path d="M377.087,231.431l-4.746-6.328h-1.582l6.328,8.438Z" transform="translate(-337.536 -168.768)" fill="#daf0fd"/><path d="M373.527,226.685l-1.186-1.582h-1.582l1.187,1.582Z" transform="translate(-337.536 -168.768)" fill="#b4e1fa"/><g transform="translate(33.223 56.335)"><rect width="6.328" height="1.582" transform="translate(0 0)" fill="#a0d2f0"/></g><path d="M377.087,231.431l-4.746-6.328h-1.582l6.328,8.438Z" transform="translate(-337.536 -168.768)" fill="#daf0fd"/><path d="M370.759,248.644v4.219l4.746,6.328h1.582v-2.109Z" transform="translate(-337.536 -190.199)" fill="#a0d2f0"/></g></g></svg>