<svg xmlns="http://www.w3.org/2000/svg" width="139.301" height="125.821" viewBox="0 0 139.301 125.821"><g transform="translate(-727 -464)"><rect width="139.301" height="125.821" rx="4" transform="translate(727 464)" fill="#fff"/><text transform="translate(797 555)" font-size="14" font-family="NotoSans-Regular, Noto Sans"><tspan x="-41.461" y="0">Data Entry &amp;</tspan><tspan x="-21.455" y="19">Admin</tspan></text><g transform="translate(774.999 486.005)"><path d="M2.3,32.3H1.651a.65.65,0,0,1,0-1.3H2.3a.65.65,0,0,1,0,1.3Z" transform="translate(0 -10.149)" fill="#aab2bd"/><path d="M61.3,32.3h-.651a.65.65,0,0,1,0-1.3H61.3a.65.65,0,1,1,0,1.3Z" transform="translate(-20.645 -10.149)" fill="#aab2bd"/><path d="M38.7,34.995H3.605L1,49.953H41.3Z" transform="translate(-0.001 -11.548)" fill="#ed5565"/><path d="M49.555,6.555h-4.55V2.005Z" transform="translate(-15.399 -0.003)" fill="#f5f7fa"/><path d="M56.555,29a1.95,1.95,0,0,1,0,3.9h-4.55V29Z" transform="translate(-17.848 -9.448)" fill="#656d78"/><path d="M38.007,19.547v3.9h-26V2H33.45L33.457,2v4.55h4.55Z" transform="translate(-3.851)" fill="#e6e9ed"/><path d="M8.506,29v3.9H3.955a1.95,1.95,0,1,1,0-3.9Z" transform="translate(-0.351 -9.448)" fill="#656d78"/><path d="M1,58.005H41.3v2.6H1.005Z" transform="translate(-0.001 -19.6)" fill="#da4453"/><g transform="translate(4.579 11.748)"><path d="M53.305,40.006a.652.652,0,0,1,.65.65v.65a.652.652,0,0,1-.65.65h-.65a.652.652,0,0,1-.65-.65v-.65a.652.652,0,0,1,.65-.65Z" transform="translate(-22.427 -25.049)" fill="#ccd1d9"/><path d="M55.805,46.006a.652.652,0,0,1,.65.65v.65a.652.652,0,0,1-.65.65h-.65a.652.652,0,0,1-.65-.65v-.65a.652.652,0,0,1,.65-.65Z" transform="translate(-23.302 -27.149)" fill="#ccd1d9"/><path d="M25.8,46.006a.652.652,0,0,1,.65.65v.65a.652.652,0,0,1-.65.65h-.65a.652.652,0,0,1-.65-.65v-.65a.652.652,0,0,1,.65-.65Z" transform="translate(-12.8 -27.149)" fill="#ccd1d9"/><path d="M36.8,52a.652.652,0,0,1,.65.65v.65a.652.652,0,0,1-.65.65H16.645A.652.652,0,0,1,16,53.3v-.65a.652.652,0,0,1,.65-.65Z" transform="translate(-9.826 -29.245)" fill="#ccd1d9"/><path d="M7.805,46.006a.652.652,0,0,1,.65.65v.65a.652.652,0,0,1-.65.65h-.65a.652.652,0,0,1-.65-.65v-.65a.652.652,0,0,1,.65-.65Z" transform="translate(-6.505 -27.149)" fill="#ccd1d9"/><path d="M19.805,46.006a.652.652,0,0,1,.65.65v.65a.652.652,0,0,1-.65.65h-.65a.652.652,0,0,1-.65-.65v-.65a.652.652,0,0,1,.65-.65Z" transform="translate(-10.704 -27.149)" fill="#ccd1d9"/><path d="M23.305,40.006a.652.652,0,0,1,.65.65v.65a.652.652,0,0,1-.65.65h-.65a.652.652,0,0,1-.65-.65v-.65a.652.652,0,0,1,.65-.65Z" transform="translate(-11.929 -25.049)" fill="#ccd1d9"/><path d="M13.805,46.006a.652.652,0,0,1,.65.65v.65a.652.652,0,0,1-.65.65h-.65a.652.652,0,0,1-.65-.65v-.65a.652.652,0,0,1,.65-.65Z" transform="translate(-8.605 -27.149)" fill="#ccd1d9"/><path d="M37.8,46.006a.652.652,0,0,1,.65.65v.65a.652.652,0,0,1-.65.65h-.65a.652.652,0,0,1-.65-.65v-.65a.652.652,0,0,1,.65-.65Z" transform="translate(-17 -27.149)" fill="#ccd1d9"/><path d="M29.305,40.006a.652.652,0,0,1,.65.65v.65a.652.652,0,0,1-.65.65h-.65a.652.652,0,0,1-.65-.65v-.65a.652.652,0,0,1,.65-.65Z" transform="translate(-14.029 -25.049)" fill="#ccd1d9"/><path d="M47.3,40.006a.652.652,0,0,1,.65.65v.65a.652.652,0,0,1-.65.65h-.65a.652.652,0,0,1-.65-.65v-.65a.652.652,0,0,1,.65-.65Z" transform="translate(-20.324 -25.049)" fill="#ccd1d9"/><path d="M31.8,46.006a.652.652,0,0,1,.65.65v.65a.652.652,0,0,1-.65.65h-.65a.652.652,0,0,1-.65-.65v-.65a.652.652,0,0,1,.65-.65Z" transform="translate(-14.9 -27.149)" fill="#ccd1d9"/><path d="M43.8,46.006a.652.652,0,0,1,.65.65v.65a.652.652,0,0,1-.65.65h-.65a.652.652,0,0,1-.65-.65v-.65a.652.652,0,0,1,.65-.65Z" transform="translate(-19.099 -27.149)" fill="#ccd1d9"/><path d="M49.805,46.006a.652.652,0,0,1,.65.65v.65a.652.652,0,0,1-.65.65h-.65a.652.652,0,0,1-.65-.65v-.65a.652.652,0,0,1,.65-.65Z" transform="translate(-21.203 -27.149)" fill="#ccd1d9"/><path d="M41.3,40.006a.652.652,0,0,1,.65.65v.65a.652.652,0,0,1-.65.65h-.65a.652.652,0,0,1-.65-.65v-.65a.652.652,0,0,1,.65-.65Z" transform="translate(-18.225 -25.049)" fill="#ccd1d9"/><path d="M17.305,40.006a.652.652,0,0,1,.65.65v.65a.652.652,0,0,1-.65.65h-.65a.652.652,0,0,1-.65-.65v-.65a.652.652,0,0,1,.65-.65Z" transform="translate(-9.829 -25.049)" fill="#ccd1d9"/><path d="M35.305,40.006a.652.652,0,0,1,.65.65v.65a.652.652,0,0,1-.65.65h-.65a.652.652,0,0,1-.65-.65v-.65a.652.652,0,0,1,.65-.65Z" transform="translate(-16.128 -25.049)" fill="#ccd1d9"/><path d="M11.305,40.006a.652.652,0,0,1,.65.65v.65a.652.652,0,0,1-.65.65h-.65a.652.652,0,0,1-.65-.65v-.65a.652.652,0,0,1,.65-.65Z" transform="translate(-7.73 -25.049)" fill="#ccd1d9"/><path d="M35.251,18.3H19.65a.65.65,0,0,1,0-1.3h15.6a.65.65,0,0,1,0,1.3Z" transform="translate(-10.878 -16.998)" fill="#ccd1d9"/><path d="M35.251,23.3H19.65a.65.65,0,0,1,0-1.3h15.6a.65.65,0,0,1,0,1.3Z" transform="translate(-10.878 -18.748)" fill="#ccd1d9"/><path d="M35.251,28.3H19.65a.65.65,0,0,1,0-1.3h15.6a.65.65,0,0,1,0,1.3Z" transform="translate(-10.878 -20.497)" fill="#ccd1d9"/></g><path d="M53.305,39.005a.652.652,0,0,1,.65.65v.65a.652.652,0,0,1-.65.65h-.65a.652.652,0,0,1-.65-.65v-.65a.652.652,0,0,1,.65-.65Z" transform="translate(-17.848 -12.951)" fill="#e6e9ed"/><path d="M55.805,45.005a.652.652,0,0,1,.65.65v.65a.652.652,0,0,1-.65.65h-.65a.652.652,0,0,1-.65-.65v-.65a.652.652,0,0,1,.65-.65Z" transform="translate(-18.723 -15.051)" fill="#e6e9ed"/><path d="M25.8,45.005a.652.652,0,0,1,.65.65v.65a.652.652,0,0,1-.65.65h-.65a.652.652,0,0,1-.65-.65v-.65a.652.652,0,0,1,.65-.65Z" transform="translate(-8.222 -15.051)" fill="#e6e9ed"/><path d="M36.8,51a.652.652,0,0,1,.65.65v.65a.652.652,0,0,1-.65.65H16.645A.652.652,0,0,1,16,52.3v-.65a.652.652,0,0,1,.65-.65Z" transform="translate(-5.247 -17.147)" fill="#e6e9ed"/><path d="M7.805,45.005a.652.652,0,0,1,.65.65v.65a.652.652,0,0,1-.65.65h-.65a.652.652,0,0,1-.65-.65v-.65a.652.652,0,0,1,.65-.65Z" transform="translate(-1.926 -15.051)" fill="#e6e9ed"/><path d="M19.805,45.005a.652.652,0,0,1,.65.65v.65a.652.652,0,0,1-.65.65h-.65a.652.652,0,0,1-.65-.65v-.65a.652.652,0,0,1,.65-.65Z" transform="translate(-6.125 -15.051)" fill="#e6e9ed"/><path d="M23.305,39.005a.652.652,0,0,1,.65.65v.65a.652.652,0,0,1-.65.65h-.65a.652.652,0,0,1-.65-.65v-.65a.652.652,0,0,1,.65-.65Z" transform="translate(-7.35 -12.951)" fill="#e6e9ed"/><path d="M13.805,45.005a.652.652,0,0,1,.65.65v.65a.652.652,0,0,1-.65.65h-.65a.652.652,0,0,1-.65-.65v-.65a.652.652,0,0,1,.65-.65Z" transform="translate(-4.026 -15.051)" fill="#e6e9ed"/><path d="M37.8,45.005a.652.652,0,0,1,.65.65v.65a.652.652,0,0,1-.65.65h-.65a.652.652,0,0,1-.65-.65v-.65a.652.652,0,0,1,.65-.65Z" transform="translate(-12.421 -15.051)" fill="#e6e9ed"/><path d="M29.305,39.005a.652.652,0,0,1,.65.65v.65a.652.652,0,0,1-.65.65h-.65a.652.652,0,0,1-.65-.65v-.65a.652.652,0,0,1,.65-.65Z" transform="translate(-9.45 -12.951)" fill="#e6e9ed"/><path d="M47.3,39.005a.652.652,0,0,1,.65.65v.65a.652.652,0,0,1-.65.65h-.65a.652.652,0,0,1-.65-.65v-.65a.652.652,0,0,1,.65-.65Z" transform="translate(-15.745 -12.951)" fill="#e6e9ed"/><path d="M31.8,45.005a.652.652,0,0,1,.65.65v.65a.652.652,0,0,1-.65.65h-.65a.652.652,0,0,1-.65-.65v-.65a.652.652,0,0,1,.65-.65Z" transform="translate(-10.321 -15.051)" fill="#e6e9ed"/><path d="M43.8,45.005a.652.652,0,0,1,.65.65v.65a.652.652,0,0,1-.65.65h-.65a.652.652,0,0,1-.65-.65v-.65a.652.652,0,0,1,.65-.65Z" transform="translate(-14.52 -15.051)" fill="#e6e9ed"/><path d="M49.805,45.005a.652.652,0,0,1,.65.65v.65a.652.652,0,0,1-.65.65h-.65a.652.652,0,0,1-.65-.65v-.65a.652.652,0,0,1,.65-.65Z" transform="translate(-16.624 -15.051)" fill="#e6e9ed"/><path d="M41.3,39.005a.652.652,0,0,1,.65.65v.65a.652.652,0,0,1-.65.65h-.65a.652.652,0,0,1-.65-.65v-.65a.652.652,0,0,1,.65-.65Z" transform="translate(-13.646 -12.951)" fill="#e6e9ed"/><path d="M17.305,39.005a.652.652,0,0,1,.65.65v.65a.652.652,0,0,1-.65.65h-.65a.652.652,0,0,1-.65-.65v-.65a.652.652,0,0,1,.65-.65Z" transform="translate(-5.251 -12.951)" fill="#e6e9ed"/><path d="M35.305,39.005a.652.652,0,0,1,.65.65v.65a.652.652,0,0,1-.65.65h-.65a.652.652,0,0,1-.65-.65v-.65a.652.652,0,0,1,.65-.65Z" transform="translate(-11.549 -12.951)" fill="#e6e9ed"/><path d="M11.305,39.005a.652.652,0,0,1,.65.65v.65a.652.652,0,0,1-.65.65h-.65a.652.652,0,0,1-.65-.65v-.65a.652.652,0,0,1,.65-.65Z" transform="translate(-3.151 -12.951)" fill="#e6e9ed"/></g></g></svg>