<svg xmlns="http://www.w3.org/2000/svg" width="139.301" height="125.821" viewBox="0 0 139.301 125.821"><g transform="translate(-564 -464)"><rect width="139.301" height="125.821" rx="4" transform="translate(564 464)" fill="#fff"/><text transform="translate(634 555)" font-size="14" font-family="NotoSans-Regular, Noto Sans"><tspan x="-51.947" y="0">Design &amp; Media</tspan></text><g transform="translate(614 487.98)"><g transform="translate(0 0.02)"><path d="M51.346,24.577q-.134.282-.262.605l-3.153,7.61L44.28,27.555l1.835-4.437c.081-.2.161-.4.229-.578Z" transform="translate(-14.511 -7.4)" fill="#e64c3c"/><path d="M37.205,21.936c-.067,1.345-.208,2.689-.41,4.034l-4.693.76a33.184,33.184,0,0,1,.094-5.1V21.62Z" transform="translate(-10.501 -7.098)" fill="#4482c3"/><path d="M20.237,7.67s.592,5.233-1.371,5.689S15,8.9,15,8.9l.128-3.442c.558.2.62-2.106,1.245-2.254s1.814,1.87,2.224,1.44Z" transform="translate(-4.915 -1.061)" fill="#fdd7ad"/><path d="M23.774,24.97,22.4,29.448l-.376-.323-3.5-3.039L15,11.08a2.994,2.994,0,0,0,3.079,1.345A3,3,0,0,0,20.237,9.85Z" transform="translate(-4.915 -3.241)" fill="#e64c3c"/><path d="M22.019,29.725l-3.5-3.039L15,11.68a2.994,2.994,0,0,0,3.079,1.345Z" transform="translate(-4.915 -3.841)" fill="#c03a2b"/><path d="M10.828,29.8l-.054,8.357-5.3-1.963L.1,23.249a.672.672,0,0,1,.363-.881l5.594-2.313a.678.678,0,0,1,.881.363l.511,1.244.255.619.255.619.518,1.244.255.619L9,25.387,9.51,26.63l.255.619.255.619.78,1.869Z" transform="translate(-0.017 -6.569)" fill="#f0c419"/><path d="M9.858,23.707,6.758,25a.721.721,0,0,1-.262.047.672.672,0,0,1-.255-1.291L9.347,22.47l.255.619Z" transform="translate(-1.911 -7.377)" fill="#b19046"/><path d="M12,27.4l-1.869.773a.663.663,0,0,1-.255.047.672.672,0,0,1-.255-1.291l1.862-.773.255.619Z" transform="translate(-3.019 -8.586)" fill="#b19046"/><path d="M12.918,31.1l-3.1,1.291a.711.711,0,0,1-.255.047A.672.672,0,0,1,9.3,31.144l3.106-1.284.255.619Z" transform="translate(-2.914 -9.799)" fill="#b19046"/><path d="M38.993,43.463a4.706,4.706,0,0,1-4.706,4.706H4.706a4.706,4.706,0,0,1,0-9.412,4.644,4.644,0,0,1,1.345.195,7.059,7.059,0,0,1,11.295-5.506A8.4,8.4,0,0,1,33.615,36.4a8.3,8.3,0,0,1-.37,2.467,4.852,4.852,0,0,1,1.042-.114,4.706,4.706,0,0,1,4.706,4.706Z" transform="translate(0 -9.189)" fill="#e6e7e8"/><path d="M18.659,3.6a3.408,3.408,0,0,1-1.593,1.022,3.412,3.412,0,0,1-1.876-.208l.128-3.55A.882.882,0,0,1,15.99.04a.96.96,0,0,1,.195-.02.883.883,0,0,1,.78.464Z" transform="translate(-4.978 -0.02)" fill="#2c2f38"/><path d="M37.279,20.347a22.17,22.17,0,0,1-5.009-.316c.1-1.1.249-2.178.424-3.261,1.513.094,3.039.188,4.592.282A29.918,29.918,0,0,1,37.279,20.347Z" transform="translate(-10.575 -5.509)" fill="#95a5a5"/><path d="M32.276,11.535s-2.7-2.452-.252-5.157c2.038-2.248,2.849-3.783,2.8-5.238a.332.332,0,0,1,.565-.249c1.656,1.621,5.391,6.145,1.442,10.925" transform="translate(-10.157 -0.274)" fill="#805333"/><path d="M37.357,12.39a.672.672,0,0,1-.538-1.076,3.735,3.735,0,0,0,.669-2.8.672.672,0,1,1,1.3-.346,5.042,5.042,0,0,1-.894,3.959A.672.672,0,0,1,37.357,12.39Z" transform="translate(-12.022 -2.52)" fill="#603e26"/><path d="M24.318,49.049a.672.672,0,0,1-.619-.409,4.082,4.082,0,0,1-.329-1.608,4.034,4.034,0,0,1,7.684-1.718.672.672,0,0,1-1.217.573A2.662,2.662,0,0,0,27.4,44.343a2.689,2.689,0,0,0-2.689,2.689,2.739,2.739,0,0,0,.222,1.081.672.672,0,0,1-.355.882A.665.665,0,0,1,24.318,49.049Z" transform="translate(-7.658 -14.103)" fill="#bdc3c7"/><path d="M37.67,47.911a.672.672,0,0,1-.612-.393,2.017,2.017,0,0,0-1.829-1.173,1.983,1.983,0,0,0-1.248.438.672.672,0,0,1-.838-1.051A3.312,3.312,0,0,1,35.23,45a3.362,3.362,0,0,1,3.052,1.96.672.672,0,0,1-.612.951Z" transform="translate(-10.778 -14.76)" fill="#bdc3c7"/><path d="M13.672,42.033A.672.672,0,0,1,13,41.361a3.648,3.648,0,0,1,2.477-3.327.674.674,0,0,1,.429,1.277,2.311,2.311,0,0,0-1.561,2.05A.672.672,0,0,1,13.672,42.033Z" transform="translate(-4.26 -12.466)" fill="#bdc3c7"/><path d="M30.672,35.034a.656.656,0,0,1-.164-.02.672.672,0,0,1-.489-.816A4.188,4.188,0,0,1,34.033,31a.672.672,0,0,1,0,1.345,2.867,2.867,0,0,0-2.713,2.18A.672.672,0,0,1,30.672,35.034Z" transform="translate(-9.831 -10.172)" fill="#bdc3c7"/><path d="M54.47,17.452a.352.352,0,0,1-.081.3,12.018,12.018,0,0,0-2.037,3.368,2.325,2.325,0,0,1-.793.383,3.312,3.312,0,0,1-2.205-.182c-.007,0-.007-.007-.013-.007a3.294,3.294,0,0,1-1.7-1.439,2.379,2.379,0,0,1-.289-.793,12.315,12.315,0,0,0,.948-3.852.332.332,0,0,1,.161-.269l3.772-2.353L53.206,12l.262,1.123Z" transform="translate(-15.517 -3.946)" fill="#f0c419"/><path d="M53.206,12l-2.051,4.968h-.007l-1.8,4.357c-.007,0-.007-.007-.013-.007a3.294,3.294,0,0,1-1.7-1.439,2.379,2.379,0,0,1-.289-.793,12.315,12.315,0,0,0,.948-3.852.332.332,0,0,1,.161-.269l3.772-2.353Z" transform="translate(-15.517 -3.946)" fill="#f3d55b"/><path d="M55.116,13.123l-1.445,3.483a.672.672,0,0,1-.619.417.636.636,0,0,1-.249-.054H52.8a.667.667,0,0,1-.417-.619.731.731,0,0,1,.054-.262l1.445-3.476L54.854,12Z" transform="translate(-17.165 -3.946)" fill="#e57e25"/></g></g></g></svg>