<svg xmlns="http://www.w3.org/2000/svg" width="139.301" height="125.821" viewBox="0 0 139.301 125.821"><g transform="translate(-1053 -464)"><rect width="139.301" height="125.821" rx="4" transform="translate(1053 464)" fill="#fff"/><text transform="translate(1123 555)" font-size="14" font-family="NotoSans-Regular, Noto Sans"><tspan x="-46.823" y="0">Engineering &amp;</tspan><tspan x="-24.591" y="19">Science</tspan></text><g transform="translate(1102 488)"><path d="M124.586,185.379v3.346c0,5.889,4.484,12.045,10.038,12.045s10.038-6.157,10.038-12.045v-3.346Z" transform="translate(-114.217 -171.326)" fill="#faba81"/><path d="M120.984,2.008V1.338A1.342,1.342,0,0,0,119.645,0h-2.677a1.342,1.342,0,0,0-1.338,1.338v.669a10.964,10.964,0,0,0-8.7,10.707v1.338h22.752V12.714a10.963,10.963,0,0,0-8.7-10.707" transform="translate(-97.901)" fill="#f4ba48"/><g transform="translate(7.023 2.007)"><path d="M284.151,29.828a.632.632,0,0,1-.669-.669V27.151a.669.669,0,0,1,1.338,0v2.008a.632.632,0,0,1-.669.669" transform="translate(-268.091 -26.482)" fill="#b58024"/><path d="M213.531,29.828a.632.632,0,0,1-.669-.669V27.151a.669.669,0,1,1,1.338,0v2.008a.632.632,0,0,1-.669.669" transform="translate(-202.824 -26.482)" fill="#b58024"/><path d="M106.546,177.889H81.117a.669.669,0,0,1,0-1.338h25.429a.669.669,0,0,1,0,1.338" transform="translate(-80.448 -165.175)" fill="#b58024"/></g><g transform="translate(17.06 29.444)"><path d="M227.043,394.437H221.69l2.677-6.023Z" transform="translate(-221.021 -388.414)" fill="#364875"/><path d="M212.862,471.208l.669-3.346h5.353l.669,3.346Z" transform="translate(-212.862 -461.839)" fill="#364875"/></g><g transform="translate(12.376 25.429)"><path d="M151.939,335.515l-.2-.067-.669,2.677,5.354,7.361,2.677-6.023a9.26,9.26,0,0,1-7.16-3.948" transform="translate(-151.069 -335.448)" fill="#5869a0"/><path d="M264.16,335.516a9.26,9.26,0,0,1-7.16,3.948l2.677,6.023,5.353-7.361-.669-2.677Z" transform="translate(-248.97 -335.449)" fill="#5869a0"/></g><g transform="translate(1 29.444)"><path d="M307.435,392.228A32.151,32.151,0,0,0,297,388.414h-.335l-4.35,6.023.669,3.346h16.06v-2.878a2.994,2.994,0,0,0-1.606-2.677" transform="translate(-270.228 -388.414)" fill="#7383bf"/><path d="M13.38,388.414h-.335a32.153,32.153,0,0,0-10.439,3.814A2.994,2.994,0,0,0,1,394.905v2.878H17.06l.669-3.346Z" transform="translate(-1 -388.414)" fill="#7383bf"/></g><g transform="translate(10.636 3.145)"><path d="M128.117,45.371l5.086,1-1-4.885a11.356,11.356,0,0,0-4.082,3.881" transform="translate(-128.117 -41.49)" fill="#b58024"/><path d="M323.879,45.371l-5.086,1,1-4.885a11.356,11.356,0,0,1,4.082,3.881" transform="translate(-304.339 -41.49)" fill="#b58024"/></g></g></g></svg>