<svg xmlns="http://www.w3.org/2000/svg" width="54.009" height="41.2" viewBox="0 0 54.009 41.2"><g transform="translate(-0.084 0.006)"><path d="M15.435,0a5.44,5.44,0,0,1,3.1.747,5.8,5.8,0,0,1,1.969,2.083,10.346,10.346,0,0,1,1.132,2.943,32.573,32.573,0,0,1,.589,3.3,7.739,7.739,0,0,1,.091,1.087c.023.521.023,1.177.023,1.992,0,1.426-.091,3.169-.249,5.206a42.56,42.56,0,0,1-1.064,6.5,5.384,5.384,0,0,1,1.449.883,6.866,6.866,0,0,1,1.064,1.087,9.541,9.541,0,0,1,.747,1.109c.2.362.362.656.475.905a1.72,1.72,0,0,1,.091.249.365.365,0,0,0,.091.158.822.822,0,0,1,.158.7.8.8,0,0,1-.407.362,1.994,1.994,0,0,1-.656.113,1.953,1.953,0,0,1-.566-.045c-.226-.091-.34-.158-.362-.272a3.56,3.56,0,0,0-.158-.407c-.091-.181-.181-.407-.294-.656a5.812,5.812,0,0,0-.453-.792,6.751,6.751,0,0,0-.656-.792,3.409,3.409,0,0,0-.951-.679,32.288,32.288,0,0,1-2.037,5.252,20.631,20.631,0,0,1-3.124,4.686A17.136,17.136,0,0,1,11,39.27a16.592,16.592,0,0,1-5.953,1.9c-.2.023-.475.023-.815.023a6.333,6.333,0,0,1-1.087-.113,7.542,7.542,0,0,1-1.154-.362,3.091,3.091,0,0,1-1.019-.679,3.333,3.333,0,0,1-.7-1.087A3.5,3.5,0,0,1,.11,37.368c.045-.158.181-.566.43-1.2a14.8,14.8,0,0,1,1.177-2.286,28.291,28.291,0,0,1,2.06-2.875A19.489,19.489,0,0,1,6.856,28a24.871,24.871,0,0,1,4.256-2.671,21.28,21.28,0,0,1,5.546-1.834l.362-.068a46.524,46.524,0,0,0,1.087-5.569,42.84,42.84,0,0,0,.362-5.636c0-.566,0-1.109-.023-1.63-.023-.543-.068-1.064-.113-1.585-.091-.973-.2-1.924-.294-2.852a14.847,14.847,0,0,0-.453-2.49,5.829,5.829,0,0,0-.77-1.766,1.344,1.344,0,0,0-1.177-.634,2.162,2.162,0,0,0-1.29.5,7.688,7.688,0,0,0-1.426,1.426,16.848,16.848,0,0,0-1.381,2.15,18.122,18.122,0,0,0-1.2,2.762,22.846,22.846,0,0,0-.86,3.26,20.346,20.346,0,0,0-.317,3.554,19.02,19.02,0,0,0,.543,4.437,17.274,17.274,0,0,0,1.811,4.459.437.437,0,0,1-.045.589,1.056,1.056,0,0,1-.679.2,3.2,3.2,0,0,1-.905-.113,1,1,0,0,1-.634-.362v.023a12.538,12.538,0,0,1-1.9-4.391A23.6,23.6,0,0,1,7.286,9.186a18.042,18.042,0,0,1,1.652-4.6,10.111,10.111,0,0,1,2.739-3.3A6.38,6.38,0,0,1,15.435,0ZM4.955,40.062a6.894,6.894,0,0,0,3.554-1.336,14.262,14.262,0,0,0,3.169-3.214,27.21,27.21,0,0,0,2.694-4.64A44.415,44.415,0,0,0,16.5,25.258a12.679,12.679,0,0,0-4.12,1.245,17.12,17.12,0,0,0-3.3,2.2,18.134,18.134,0,0,0-2.513,2.626A26.343,26.343,0,0,0,4.8,33.882,15.864,15.864,0,0,0,3.755,35.9a5.576,5.576,0,0,0-.34.928v.158a.365.365,0,0,1-.068.2c-.023.136-.045.317-.068.521a5.316,5.316,0,0,0-.023.589,3.136,3.136,0,0,0,.068.679,1.366,1.366,0,0,0,.249.589,1.606,1.606,0,0,0,.521.407A1.444,1.444,0,0,0,4.955,40.062Z" transform="translate(0 0)" fill="#232327"/><path d="M109.043,67.6a4.89,4.89,0,0,1-3.282-1.064,5.456,5.456,0,0,1-1.7-2.6,8.383,8.383,0,0,1-.272-3.4,10.077,10.077,0,0,1,.951-3.35,7.575,7.575,0,0,1,1.969-2.535,4.016,4.016,0,0,1,2.875-.883,5.131,5.131,0,0,1,3.169,1.154,5.94,5.94,0,0,1,1.766,2.6,8.869,8.869,0,0,1,.475,3.3,7.864,7.864,0,0,1-.815,3.237,6.765,6.765,0,0,1-2.015,2.49A4.655,4.655,0,0,1,109.043,67.6Zm.724-2.49a1,1,0,0,0,1-.589,4.834,4.834,0,0,0,.566-1.675,11.693,11.693,0,0,0,.136-2.241,12.16,12.16,0,0,0-.272-2.286,5.752,5.752,0,0,0-.7-1.766,1.284,1.284,0,0,0-1.064-.724,1.162,1.162,0,0,0-.951.656,5.781,5.781,0,0,0-.589,1.675,10.977,10.977,0,0,0-.2,2.2,9.822,9.822,0,0,0,.226,2.218,5.832,5.832,0,0,0,.656,1.743A1.529,1.529,0,0,0,109.767,65.108Z" transform="translate(-80.184 -41.594)" fill="#232327"/><path d="M160.25,10.823a2.158,2.158,0,0,1,.724-1.856,2.386,2.386,0,0,1,1.585-.475,2.584,2.584,0,0,1,1.494.611,1.43,1.43,0,0,1,.475,1.449c-.068.453-.2,1.313-.362,2.6s-.317,2.784-.475,4.459-.272,3.441-.385,5.252-.181,3.486-.2,5.025a29.8,29.8,0,0,0,.158,3.78c.136.973.385,1.471.747,1.471.226,0,.521-.407.905-1.222s.77-1.743,1.154-2.784.747-2.037,1.087-3.033c.34-.973.566-1.607.656-1.924a.819.819,0,0,1,.5-.656,1.229,1.229,0,0,1,.747-.091.988.988,0,0,1,.611.385.833.833,0,0,1,.091.815c-.226.747-.521,1.766-.883,3.1a31.276,31.276,0,0,1-1.381,3.939,15.418,15.418,0,0,1-1.992,3.4,3.5,3.5,0,0,1-2.784,1.449,2.383,2.383,0,0,1-2.241-1.585,12.9,12.9,0,0,1-1.019-4.029,41.034,41.034,0,0,1-.2-5.433c.045-1.992.158-3.939.294-5.863.158-1.9.294-3.644.453-5.206A32.466,32.466,0,0,0,160.25,10.823Z" transform="translate(-123.128 -6.573)" fill="#232327"/><path d="M199.277,29.812a1.9,1.9,0,0,1-.136,1.132,2.675,2.675,0,0,1-.747.951,4.913,4.913,0,0,1-1.154.7,5.972,5.972,0,0,1-1.381.385,6.137,6.137,0,0,1-2.716-.272,1.97,1.97,0,0,1-1.494-1.607,2.122,2.122,0,0,1,.747-2.083,5.766,5.766,0,0,1,5.455-.883A2.133,2.133,0,0,1,199.277,29.812Zm-6.338,7.606a2.1,2.1,0,0,1,.7-1.834,2.034,2.034,0,0,1,1.517-.385,2.4,2.4,0,0,1,1.449.724,1.578,1.578,0,0,1,.453,1.494,21.145,21.145,0,0,0-.407,2.49c-.136,1-.2,1.969-.249,2.875a12.85,12.85,0,0,0,.091,2.377c.091.656.294,1,.634,1,.226,0,.5-.294.815-.86a15.575,15.575,0,0,0,.905-2.015c.294-.77.566-1.562.838-2.332a14.392,14.392,0,0,0,.5-1.766,1.158,1.158,0,0,1,.566-.747,1.1,1.1,0,0,1,.747-.113,1.022,1.022,0,0,1,.611.407.878.878,0,0,1,.091.838c-.068.226-.2.634-.362,1.245s-.385,1.29-.634,2.015c-.249.747-.566,1.517-.905,2.309a11.69,11.69,0,0,1-1.222,2.105,5.6,5.6,0,0,1-1.517,1.426,2.231,2.231,0,0,1-1.834.226,3.314,3.314,0,0,1-2.128-1.63,6.659,6.659,0,0,1-.747-2.784,25.081,25.081,0,0,1,.023-3.441C192.894,39.817,192.939,38.595,192.939,37.418Z" transform="translate(-148.167 -21.509)" fill="#232327"/></g></svg>