<svg xmlns="http://www.w3.org/2000/svg" width="139.301" height="125.821" viewBox="0 0 139.301 125.821"><g transform="translate(-1542 -464)"><rect width="139.301" height="125.821" rx="4" transform="translate(1542 464)" fill="#fff"/><text transform="translate(1612 555)" font-size="14" font-family="NotoSans-Regular, Noto Sans"><tspan x="-32.62" y="0">Local Jobs</tspan></text><g transform="translate(1588 482.5)"><path d="M44.658,47.594,42.7,44.651,39.264,39.5H8.358L6.394,42.443,1,50.538H46.623Z" transform="translate(0 -8.981)" fill="#a0d468"/><path d="M26.492,34.2c-.883-.9-2.061-2.163-3.29-3.679-2.965-3.672-6.2-8.86-6.2-13.981a11.038,11.038,0,0,1,22.075,0c0,5.122-3.238,10.309-6.2,13.981-1.229,1.517-2.407,2.781-3.29,3.679h-.007c-.927.935-1.538,1.472-1.538,1.472s-.61-.537-1.545-1.472Z" transform="translate(-4.226 0)" fill="#ed5565"/><path d="M57.688,49.443H53.273L50.33,46.5h5.4Z" transform="translate(-13.031 -10.83)" fill="#8cc152"/><path d="M33.353,47.443,36.539,44.5l4,6.623H23.073L20.13,48.179Z" transform="translate(-5.053 -10.302)" fill="#8cc152"/><g transform="translate(1 33.462)"><path d="M58.193,50.5l1.965,2.943H53.645L52.24,50.5Z" transform="translate(-14.535 -45.349)" fill="#e6e9ed"/><path d="M28.865,45.972s.611-.537,1.538-1.472h6.137l1.06,3.679H20.13L21.19,44.5h6.13C28.254,45.435,28.865,45.972,28.865,45.972Z" transform="translate(-6.053 -43.764)" fill="#e6e9ed"/><path d="M11.368,43.5,7.512,51.594H1L6.394,43.5Z" transform="translate(-1 -43.5)" fill="#e6e9ed"/></g><path d="M16.649,46.443,14.2,51.594H9.85L13.706,43.5Z" transform="translate(-2.338 -10.038)" fill="#8cc152"/><path d="M46.623,54.5v2.943H1V54.5H46.623Z" transform="translate(0 -12.943)" fill="#81b53e"/><path d="M54.852,44.651h-5.4L47,39.5h4.415Z" transform="translate(-12.151 -8.981)" fill="#e6e9ed"/><path d="M30.417,18.712H26a2.208,2.208,0,1,1,4.415,0Z" transform="translate(-6.604 -2.907)" fill="#a0d468"/><path d="M31.21,13.494A2.209,2.209,0,0,1,33.417,15.7v.007a2.2,2.2,0,0,0-2.208,2.208A2.21,2.21,0,0,0,29,15.709V15.7a2.209,2.209,0,0,1,2.208-2.208Z" transform="translate(-7.397 -2.112)" fill="#ac92ec"/><path d="M36.417,18.712H32a2.208,2.208,0,1,1,4.415,0Z" transform="translate(-8.189 -2.907)" fill="#48cfad"/><path d="M35.3,19.5,30.16,29.07,25,19.5H35.3Z" transform="translate(-6.34 -3.699)" fill="#ffd2a6"/></g></g></svg>