<svg xmlns="http://www.w3.org/2000/svg" width="139.301" height="125.821" viewBox="0 0 139.301 125.821"><g transform="translate(-890 -464)"><rect width="139.301" height="125.821" rx="4" transform="translate(890 464)" fill="#fff"/><text transform="translate(960 555)" font-size="14" font-family="NotoSans-Regular, Noto Sans"><tspan x="-59.458" y="0">Sales &amp; Marketing</tspan></text><g transform="translate(941 488)"><path d="M251.1,8.232a.583.583,0,0,1-.583-.583V4.661a3.5,3.5,0,0,0-6.992,0V7.649a.583.583,0,1,1-1.165,0V4.661a4.661,4.661,0,1,1,9.322,0V7.649A.582.582,0,0,1,251.1,8.232Zm0,0" transform="translate(-223.894)" fill="#d2d2d7"/><path d="M158.89,80.479v25.814a.806.806,0,0,1-.806.807H136.526a.806.806,0,0,1-.807-.807V80.479a.807.807,0,0,1,.807-.807h21.558A.807.807,0,0,1,158.89,80.479Zm0,0" transform="translate(-125.378 -73.602)" fill="#f44545"/><path d="M363.691,80.479v25.814a.806.806,0,0,1-.806.807H357.41V79.672h5.474A.807.807,0,0,1,363.691,80.479Zm0,0" transform="translate(-330.179 -73.602)" fill="#c42d2d"/><path d="M392.02,86.736a.583.583,0,0,0-.583.582V107.1H392.6V87.318A.583.583,0,0,0,392.02,86.736Zm-.583-7.064v5.316a.583.583,0,1,0,1.165,0V79.672Zm0,0" transform="translate(-361.613 -73.602)" fill="#f44545"/><path d="M197.568,9.394a.582.582,0,0,1-.582-.583V4.661a3.5,3.5,0,0,0-6.992,0V8.812a.583.583,0,0,1-1.165,0V4.661a4.661,4.661,0,0,1,9.322,0V8.812A.583.583,0,0,1,197.568,9.394Zm0,0" transform="translate(-174.441)" fill="#ebebf0"/><path d="M204.137,335a1.718,1.718,0,0,0-.752,2.311l.529,1.04a.5.5,0,0,1-.449.733H196.6a1.143,1.143,0,1,0-.031,2.286h-2.137a1.2,1.2,0,0,0-.805.361,1.162,1.162,0,0,0-.311,1.124,1.077,1.077,0,0,0,1.092.8h.992a1.143,1.143,0,0,0,.023,2.285l3.563,0a1.141,1.141,0,0,0-1.143,1.142,1.143,1.143,0,0,0,1.143,1.143l7.992,0H207a2.7,2.7,0,0,0,2.7-2.688l-.011-6.04a2.729,2.729,0,0,0-.031-.415h-1.524a1.826,1.826,0,0,1-1.628-1l-1.414-2.777A.705.705,0,0,0,204.137,335Zm0,0" transform="translate(-178.55 -309.401)" fill="#f2bb88"/><g transform="translate(14.763 31.163)"><path d="M213.8,469.02h-6.663a1.142,1.142,0,0,0,1.089.8l3.563,0H213.8a.4.4,0,1,0,0-.8Zm0,0" transform="translate(-206.114 -464.447)" fill="#e3a76f"/><path d="M201.447,439h-7.681a1.077,1.077,0,0,0,1.092.8h6.589a.4.4,0,0,0,0-.8Zm0,0" transform="translate(-193.766 -436.712)" fill="#e3a76f"/><path d="M208.414,419.5h0Zm0,0" transform="translate(-207.298 -418.704)" fill="#e3a76f"/><path d="M227.626,409.012h-5.478a1.149,1.149,0,0,0,1.09.8h4.388a.4.4,0,0,0,0-.8Zm0,0" transform="translate(-219.986 -409.012)" fill="#e3a76f"/><path d="M265.043,460.691a2.7,2.7,0,0,1-2.7,2.6h-9.155a1.142,1.142,0,0,0,1.142,1.119l7.992,0h.021a2.7,2.7,0,0,0,2.7-2.688Zm0,0" transform="translate(-248.664 -456.754)" fill="#e3a76f"/></g><path d="M408.349,380.372h4.1c.844,0,1.538-.52,1.538-1.157v-8.537a1.393,1.393,0,0,0-1.534-1.162h-4.1c-.844,0-1.535.521-1.535,1.157l0,8.538A1.392,1.392,0,0,0,408.349,380.372Zm0,0" transform="translate(-375.82 -341.362)" fill="#d2d2d7"/><path d="M443.621,380.372h2.829c.844,0,1.538-.52,1.538-1.157v-8.537a1.393,1.393,0,0,0-1.534-1.162h-2.833Zm0,0" transform="translate(-409.821 -341.362)" fill="#5596fb"/><path d="M461.538,476.5a.8.8,0,1,1-.8.8A.8.8,0,0,1,461.538,476.5Zm0,0" transform="translate(-425.638 -440.195)" fill="#0956c6"/><path d="M97.733,127.6a1.718,1.718,0,0,1,.752,2.311l-.529,1.04a.5.5,0,0,0,.45.733h2.041l4.827,0a1.143,1.143,0,1,1,.032,2.286h2.136a1.2,1.2,0,0,1,.805.361,1.167,1.167,0,0,1,.311,1.124,1.077,1.077,0,0,1-1.092.8h-.993a1.143,1.143,0,0,1-.023,2.285l-3.563,0a1.14,1.14,0,0,1,1.143,1.143,1.143,1.143,0,0,1-1.142,1.143l-7.992,0h-.021a2.7,2.7,0,0,1-2.7-2.689l.011-6.04a2.737,2.737,0,0,1,.032-.415h1.524a1.826,1.826,0,0,0,1.628-1l1.414-2.777A.705.705,0,0,1,97.733,127.6Zm0,0" transform="translate(-85.153 -117.808)" fill="#f2bb88"/><path d="M201.513,261.625h6.663a1.142,1.142,0,0,1-1.089.8l-3.563,0h-2.011a.4.4,0,0,1,0-.8Zm0,0" transform="translate(-185.79 -241.691)" fill="#e3a76f"/><path d="M201.513,231.605h7.681a1.078,1.078,0,0,1-1.092.8h-6.589a.4.4,0,1,1,0-.8Zm0,0" transform="translate(-185.79 -213.959)" fill="#e3a76f"/><path d="M266.625,212.11h0Zm0,0" transform="translate(-244.336 -195.949)" fill="#e3a76f"/><path d="M202.052,201.617h5.478a1.148,1.148,0,0,1-1.09.8h-4.388a.4.4,0,0,1,0-.8Zm0,0" transform="translate(-186.288 -186.256)" fill="#e3a76f"/><path d="M92.178,253.3a2.7,2.7,0,0,0,2.7,2.6h9.155a1.142,1.142,0,0,1-1.142,1.119l-7.992,0h-.021a2.7,2.7,0,0,1-2.7-2.688Zm0,0" transform="translate(-85.153 -233.998)" fill="#e3a76f"/><path d="M7.172,168.7c0,.636-.69,1.162-1.533,1.162h-4.1C.695,169.86,0,169.34,0,168.7v-8.536A1.393,1.393,0,0,1,1.534,159h4.1c.844,0,1.535.521,1.535,1.157Zm0,0" transform="translate(0 -146.889)" fill="#ebebf0"/><path d="M3.98,168.784,4.9,169.86H1.539C.695,169.86,0,169.34,0,168.7v-8.536A1.393,1.393,0,0,1,1.534,159H4.9l-.922,1.075a1.121,1.121,0,0,0,0,1.459l.3.353a1.122,1.122,0,0,1,0,1.459l-.3.353a1.12,1.12,0,0,0,0,1.458l.3.353a1.122,1.122,0,0,1,0,1.459l-.3.354A1.12,1.12,0,0,0,3.98,168.784Zm0,0" transform="translate(0 -146.889)" fill="#ffa90b"/></g></g></svg>