<svg xmlns="http://www.w3.org/2000/svg" width="139.301" height="125.821" viewBox="0 0 139.301 125.821"><g transform="translate(-238 -464)"><rect width="139.301" height="125.821" rx="4" transform="translate(238 464)" fill="#fff"/><g transform="translate(287 492.34)"><path d="M205.484,355.094h8.3v4.59h-8.3Zm0,0" transform="translate(-188.6 -325.917)" fill="#2c6a9b"/><path d="M205.488,355.094h8.3v1.429h-8.3Zm0,0" transform="translate(-188.604 -325.917)" fill="#1a5a84"/><path d="M165.374,407.628h-16.14a.765.765,0,1,1,0-1.531h16.14a.765.765,0,0,1,0,1.531Zm0,0" transform="translate(-136.269 -372.73)" fill="#dceeef"/><path d="M42.07,1.3V28.558a.863.863,0,0,1-.864.863H.864A.863.863,0,0,1,0,28.558V1.3A1.3,1.3,0,0,1,1.3,0H40.774A1.3,1.3,0,0,1,42.07,1.3Zm0,0" fill="#dceeef"/><path d="M476.531,1.3V28.561a.863.863,0,0,1-.864.864h-1.88a.863.863,0,0,0,.864-.864V1.3A1.3,1.3,0,0,0,473.355,0h1.88A1.3,1.3,0,0,1,476.531,1.3Zm0,0" transform="translate(-434.461 -0.004)" fill="#bcdde2"/><path d="M282.32,77.813h18.872V88.868H282.32Zm0,0" transform="translate(-259.123 -71.419)" fill="#3bc3ff"/><path d="M489.125,77.813H491V88.868h-1.88Zm0,0" transform="translate(-448.935 -71.419)" fill="#009af2"/><path d="M296.268,83.836a.846.846,0,0,1,.121.757l-1.166,3.617-.212.654h-9.752l.716-1.9a.868.868,0,0,1,.083-.163l.384-.589a.846.846,0,0,0-.229-1.16l-2.246-1.545a.85.85,0,0,0-.38-.143l-1.267-.15V77.809h13.39l-.948,1.792a.847.847,0,0,1-.69.449l-4.093.281a.847.847,0,0,0-.472.185l-1.492,1.2a.846.846,0,0,0-.245,1l.381.866a.846.846,0,0,0,.915.494l6.05-1.02a.846.846,0,0,1,.825.337Zm0,0" transform="translate(-259.123 -71.415)" fill="#8dffa2"/><path d="M23.2,0V29.421H.864A.863.863,0,0,1,0,28.558V1.3A1.3,1.3,0,0,1,1.3,0Zm0,0" fill="#4c94c3"/><path d="M42.07,1.3V3.144H0V1.3A1.3,1.3,0,0,1,1.3,0H40.774A1.3,1.3,0,0,1,42.07,1.3Zm0,0" fill="#8bc1c6"/><path d="M42.07,307.648v3.279a.863.863,0,0,1-.864.864H.864A.863.863,0,0,1,0,310.927v-3.279Zm0,0" transform="translate(0 -282.37)" fill="#3b7ca8"/><path d="M481.357,307.648v3.279a.863.863,0,0,1-.864.864h-1.88a.863.863,0,0,0,.864-.864v-3.279Zm0,0" transform="translate(-439.287 -282.37)" fill="#2c6a9b"/><path d="M41.99,77.821h-.039a.635.635,0,0,1,0-1.27h.039a.635.635,0,1,1,0,1.27Zm0,0" transform="translate(-37.922 -70.261)" fill="#ff8980"/><path d="M68.938,77.821h-2.37a.635.635,0,0,1,0-1.27h2.37a.635.635,0,0,1,0,1.27Zm0,0" transform="translate(-60.516 -70.261)" fill="#ff8980"/><g transform="translate(3.395 8.384)"><path d="M41.99,103.3h-.039a.635.635,0,0,1,0-1.27h.039a.635.635,0,1,1,0,1.27Zm0,0" transform="translate(-41.316 -102.031)" fill="#8dffa2"/><path d="M71.873,103.3h-5.3a.635.635,0,0,1,0-1.27h5.3a.635.635,0,0,1,0,1.27Zm0,0" transform="translate(-63.911 -102.031)" fill="#8dffa2"/><path d="M41.99,128.785h-.039a.635.635,0,0,1,0-1.27h.039a.635.635,0,1,1,0,1.27Zm0,0" transform="translate(-41.316 -125.422)" fill="#8dffa2"/><path d="M70.406,128.785H66.568a.635.635,0,0,1,0-1.27h3.837a.635.635,0,1,1,0,1.27Zm0,0" transform="translate(-63.911 -125.422)" fill="#8dffa2"/><path d="M41.99,154.266h-.039a.635.635,0,0,1,0-1.27h.039a.635.635,0,1,1,0,1.27Zm0,0" transform="translate(-41.316 -148.808)" fill="#8dffa2"/><path d="M115.985,154.266h-6.151a.635.635,0,1,1,0-1.27h6.151a.635.635,0,1,1,0,1.27Zm0,0" transform="translate(-103.621 -148.808)" fill="#8dffa2"/><path d="M68.374,154.266H66.568a.635.635,0,0,1,0-1.27h1.806a.635.635,0,0,1,0,1.27Zm0,0" transform="translate(-63.911 -148.808)" fill="#8dffa2"/></g><path d="M41.99,179.746h-.039a.635.635,0,0,1,0-1.27h.039a.635.635,0,1,1,0,1.27Zm0,0" transform="translate(-37.922 -163.812)" fill="#8df4ff"/><path d="M71.873,179.746h-5.3a.635.635,0,0,1,0-1.27h5.3a.635.635,0,0,1,0,1.27Zm0,0" transform="translate(-60.516 -163.812)" fill="#8df4ff"/><path d="M41.99,205.23h-.039a.635.635,0,0,1,0-1.269h.039a.635.635,0,1,1,0,1.269Zm0,0" transform="translate(-37.922 -187.202)" fill="#8df4ff"/><path d="M71.873,205.23h-5.3a.635.635,0,0,1,0-1.269h5.3a.635.635,0,1,1,0,1.269Zm0,0" transform="translate(-60.516 -187.202)" fill="#8df4ff"/><path d="M41.99,230.711h-.039a.635.635,0,0,1,0-1.27h.039a.635.635,0,1,1,0,1.27Zm0,0" transform="translate(-37.922 -210.589)" fill="#ff8980"/><path d="M167.514,230.711h-2.051a.635.635,0,1,1,0-1.27h2.051a.635.635,0,1,1,0,1.27Zm0,0" transform="translate(-151.285 -210.589)" fill="#ff8980"/><path d="M72.832,230.711H66.568a.635.635,0,0,1,0-1.27h6.264a.635.635,0,0,1,0,1.27Zm0,0" transform="translate(-60.516 -210.589)" fill="#ff8980"/><path d="M41.99,256.2h-.039a.635.635,0,0,1,0-1.269h.039a.635.635,0,1,1,0,1.269Zm0,0" transform="translate(-37.922 -233.979)" fill="#ff8980"/><path d="M71.873,256.2h-5.3a.635.635,0,0,1,0-1.269h5.3a.635.635,0,1,1,0,1.269Zm0,0" transform="translate(-60.516 -233.979)" fill="#ff8980"/><path d="M155.31,256.2h-.039a.635.635,0,0,1,0-1.269h.039a.635.635,0,1,1,0,1.269Zm0,0" transform="translate(-141.931 -233.979)" fill="#ff8980"/><path d="M119.486,77.821h-.039a.635.635,0,0,1,0-1.27h.039a.635.635,0,0,1,0,1.27Zm0,0" transform="translate(-109.05 -70.261)" fill="#ff8980"/><path d="M133.873,128.785h-.039a.635.635,0,1,1,0-1.27h.039a.635.635,0,0,1,0,1.27Zm0,0" transform="translate(-122.255 -117.038)" fill="#8dffa2"/><path d="M175.959,256.2h-.039a.635.635,0,1,1,0-1.269h.039a.635.635,0,1,1,0,1.269Zm0,0" transform="translate(-160.882 -233.979)" fill="#ff8980"/><path d="M216.506,230.711h-.039a.635.635,0,0,1,0-1.27h.039a.635.635,0,1,1,0,1.27Zm0,0" transform="translate(-198.098 -210.589)" fill="#ff8980"/><path d="M155.072,205.6h-.039a.635.635,0,1,1,0-1.269h.039a.635.635,0,1,1,0,1.269Zm0,0" transform="translate(-141.712 -187.543)" fill="#8df4ff"/><path d="M155.072,179.746h-.039a.635.635,0,1,1,0-1.27h.039a.635.635,0,1,1,0,1.27Zm0,0" transform="translate(-141.712 -163.812)" fill="#8df4ff"/><path d="M175.959,205.6h-.039a.635.635,0,1,1,0-1.269h.039a.635.635,0,1,1,0,1.269Zm0,0" transform="translate(-160.882 -187.543)" fill="#8df4ff"/><path d="M196.846,205.6h-.039a.635.635,0,1,1,0-1.269h.039a.635.635,0,1,1,0,1.269Zm0,0" transform="translate(-180.053 -187.543)" fill="#8df4ff"/><path d="M217.736,205.6H217.7a.635.635,0,1,1,0-1.269h.039a.635.635,0,0,1,0,1.269Zm0,0" transform="translate(-199.227 -187.543)" fill="#8df4ff"/><path d="M344.016,230.711H332.084a.635.635,0,0,1,0-1.27h11.932a.635.635,0,0,1,0,1.27Zm0,0" transform="translate(-304.215 -210.589)" fill="#4c94c3"/><path d="M303.456,230.711h-.61a.635.635,0,0,1,0-1.27h.61a.635.635,0,1,1,0,1.27Zm0,0" transform="translate(-277.379 -210.589)" fill="#4c94c3"/><path d="M314.777,272.2H302.846a.635.635,0,0,1,0-1.27h11.931a.635.635,0,1,1,0,1.27Zm0,0" transform="translate(-277.379 -248.664)" fill="#4c94c3"/><path d="M470.476,272.2h-.611a.635.635,0,0,1,0-1.27h.611a.635.635,0,0,1,0,1.27Zm0,0" transform="translate(-430.675 -248.664)" fill="#4c94c3"/><path d="M317.18,251.453H302.846a.635.635,0,0,1,0-1.27H317.18a.635.635,0,0,1,0,1.27Zm0,0" transform="translate(-277.379 -229.627)" fill="#4c94c3"/></g><text transform="translate(308 555)" font-size="14" font-family="NotoSans-Regular, Noto Sans"><tspan x="-44.17" y="0">Software &amp; IT</tspan></text></g></svg>