<svg xmlns="http://www.w3.org/2000/svg" width="139.301" height="125.821" viewBox="0 0 139.301 125.821"><g transform="translate(-1379 -464)"><rect width="139.301" height="125.821" rx="4" transform="translate(1379 464)" fill="#fff"/><text transform="translate(1449 555)" font-size="14" font-family="NotoSans-Regular, Noto Sans"><tspan x="-43.47" y="0">Translation &amp;</tspan><tspan x="-36.085" y="19">Languages</tspan></text><g transform="translate(1429.001 488.001)"><path d="M77.739,50.145A27.758,27.758,0,0,1,50.145,77.739,19.645,19.645,0,1,0,77.739,50.145Zm0,0" transform="translate(-45.899 -45.899)" fill="#83d8f4"/><path d="M31.841,4.246A19.643,19.643,0,0,0,4.246,31.841,27.758,27.758,0,0,0,31.841,4.246Zm0,0" transform="translate(0)" fill="#91dcf5"/><path d="M293.115,63.68c-1.5.678-2.324-.122-3.388.678a4.334,4.334,0,0,0-.678,5.42c.825,1.317,2.3,1.648,3.973,2.012a27.661,27.661,0,0,0,2.778-11.1A5.581,5.581,0,0,1,293.115,63.68Zm0,0" transform="translate(-263.98 -55.549)" fill="#0b7"/><path d="M345.913,52.129a5.255,5.255,0,0,1-.237.725,27.661,27.661,0,0,1-2.778,11.1l.095.02c2.324.508,3.225-.569,5.42,0a8.269,8.269,0,0,1,2.71,1.355,6.3,6.3,0,0,1,2,2.974c.015-.312.03-.625.03-.941A19.608,19.608,0,0,0,345.913,52.129Zm0,0" transform="translate(-313.858 -47.715)" fill="#00a468"/><path d="M197.436,306.334c1.342,1.484,1.694,3.991.678,5.42-.826,1.166-1.958.766-2.71,2.033a3.575,3.575,0,0,0,0,3.388,3.03,3.03,0,0,0,.372.535,19.858,19.858,0,0,0,2.338.143,19.642,19.642,0,0,0,17.216-10.176,10.957,10.957,0,0,0-5.02-2.02,8.321,8.321,0,0,0-5.42,1.355c-2,1.464-2.392,3.537-3.388,3.388-.7-.1-1.091-1.24-1.355-2.033a9.935,9.935,0,0,1-.283-4.039,27.683,27.683,0,0,1-2.589,1.839C197.344,306.235,197.4,306.3,197.436,306.334Zm0,0" transform="translate(-178.464 -278.554)" fill="#00a468"/><path d="M39.189,24.629c-.7-.976-2-1.159-3.388-1.355-2.913-.407-4.058.847-5.42,0a3.218,3.218,0,0,1-1.355-3.388c.569-1.7,3.056-1.125,6.1-3.388.983-.725,3.32-2.466,3.388-4.743.068-2.229-2.107-2.866-2.71-5.42-.262-1.1.227-3.631,1.466-6.077a19.644,19.644,0,0,0-17.084,10.99v.006a19.964,19.964,0,0,0,.034,7.277c.414,2.731.793,5.21,2.71,7.453.84.989,2.134,2.494,4.065,2.71,2.141.237,4.967-1.131,5.42-1.355a4.179,4.179,0,0,1,2.033-.678,3.862,3.862,0,0,1,2.548,1.188,27.688,27.688,0,0,0,2.589-1.839A2.25,2.25,0,0,0,39.189,24.629Zm0,0" transform="translate(-18.185 -0.237)" fill="#0b7"/><path d="M50.857,5.436c0,2.995-5.42,10.163-5.42,10.163a47.5,47.5,0,0,1-4.8-7.826,6.485,6.485,0,0,1-.617-2.338,5.42,5.42,0,0,1,10.841,0Zm0,0" transform="translate(-36.628 -0.015)" fill="#ff5023"/><path d="M84.081,34.048a2.033,2.033,0,1,1-2.033-2.033A2.033,2.033,0,0,1,84.081,34.048Zm0,0" transform="translate(-73.24 -29.305)" fill="#f1f2f2"/><path d="M290.857,221.436a9.173,9.173,0,0,1-1.213,3.6,54.282,54.282,0,0,1-4.208,6.565s-1.775-2.351-3.3-4.926a25.9,25.9,0,0,1-1.5-2.9,6.485,6.485,0,0,1-.617-2.338,5.42,5.42,0,1,1,10.841,0Zm0,0" transform="translate(-256.301 -197.721)" fill="#ffcd00"/><path d="M324.081,250.048a2.033,2.033,0,1,1-2.033-2.033A2.033,2.033,0,0,1,324.081,250.048Zm0,0" transform="translate(-292.913 -227.011)" fill="#f1f2f2"/></g></g></svg>