<svg xmlns="http://www.w3.org/2000/svg" width="139.301" height="125.821" viewBox="0 0 139.301 125.821"><g transform="translate(-401 -464)"><rect width="139.301" height="125.821" rx="4" transform="translate(401 464)" fill="#fff"/><text transform="translate(471 555)" font-size="14" font-family="NotoSans-Regular, Noto Sans"><tspan x="-59.178" y="0">Writing &amp; Content</tspan></text><g transform="translate(451 488)"><path d="M38.7,153.931H.3a.3.3,0,0,1-.3-.3v-27.64a.3.3,0,0,1,.3-.3H38.7a.3.3,0,0,1,.3.3v27.64A.3.3,0,0,1,38.7,153.931Z" transform="translate(0 -116.109)" fill="#ff2c5c"/><path d="M481.1,125.987v27.64a.3.3,0,0,0,.3.3h1.745a.3.3,0,0,0,.3-.3v-27.64a.3.3,0,0,0-.3-.3H481.4A.3.3,0,0,0,481.1,125.987Z" transform="translate(-444.449 -116.109)" fill="#e62753"/><path d="M242.9,463.581v2.511a1.177,1.177,0,1,1-2.354,0v-2.511Z" transform="translate(-222.224 -428.269)" fill="#d6244d"/><path d="M46.624,416.853H29.665a.3.3,0,0,1-.3-.3V413.3a.3.3,0,0,1,.3-.3H46.624Z" transform="translate(-27.124 -381.541)" fill="#bebade"/><path d="M272.959,416.853H256V413h16.959a.3.3,0,0,1,.3.3v3.243A.3.3,0,0,1,272.959,416.853Z" transform="translate(-236.5 -381.541)" fill="#b5b1d4"/><path d="M46.624,124.322H29.665a.3.3,0,0,1-.3-.3V99.2a.3.3,0,0,1,.3-.3H46.624Z" transform="translate(-27.124 -91.364)" fill="#d8d5ed"/><path d="M272.959,124.322H256V98.9h16.959a.3.3,0,0,1,.3.3v24.815A.3.3,0,0,1,272.959,124.322Z" transform="translate(-236.5 -91.364)" fill="#c7c3e3"/><g transform="translate(22.46 20.498)"><path d="M295.429,270.247h1.518a.571.571,0,1,0,0-1.143h-1.518a.571.571,0,0,0,0,1.143Z" transform="translate(-294.858 -269.104)" fill="#484b63"/><path d="M295.429,306.646h10.2a.571.571,0,0,0,0-1.143h-10.2a.571.571,0,0,0,0,1.143Z" transform="translate(-294.858 -302.73)" fill="#484b63"/><path d="M305.63,341.9h-10.2a.571.571,0,0,0,0,1.143h10.2a.571.571,0,0,0,0-1.143Z" transform="translate(-294.858 -336.358)" fill="#484b63"/><path d="M299.047,378.3h-3.618a.571.571,0,0,0,0,1.143h3.618a.571.571,0,0,0,0-1.143Z" transform="translate(-294.858 -369.985)" fill="#484b63"/></g><g transform="translate(26.478 0)"><path d="M354.441,267.793c-2.552-3.179-1.317-4.731-1.317-4.731h3.315s1.237,1.551-1.317,4.731A.441.441,0,0,1,354.441,267.793Z" transform="translate(-352.427 -243.024)" fill="#ffd659"/><path d="M371.582,257.691a.571.571,0,0,0-.571.571v1.523a.571.571,0,0,0,1.143,0v-1.523A.571.571,0,0,0,371.582,257.691Z" transform="translate(-369.228 -238.062)" fill="#484b63"/><path d="M351.929,20.221H347.99a.384.384,0,0,1-.384-.384V1.138A1.138,1.138,0,0,1,348.743,0h2.433a1.138,1.138,0,0,1,1.138,1.138v18.7A.384.384,0,0,1,351.929,20.221Z" transform="translate(-347.605 0)" fill="#ffd659"/><path d="M365.926,0h-2.354a1.138,1.138,0,0,1,1.138,1.138v18.7a.384.384,0,0,1-.384.384h2.354a.384.384,0,0,0,.384-.384V1.138A1.138,1.138,0,0,0,365.926,0Z" transform="translate(-362.356 0)" fill="#ffbd54"/><path d="M351.93,236.917H347.99a.384.384,0,0,1-.384-.384v-1.97h4.708v1.97A.384.384,0,0,1,351.93,236.917Z" transform="translate(-347.606 -216.696)" fill="#b5fcff"/><path d="M373.848,234.563v1.97a.384.384,0,0,1-.384.384h2.354a.384.384,0,0,0,.384-.384v-1.97Z" transform="translate(-371.494 -216.696)" fill="#8cf2ff"/><rect width="4.708" height="2.354" transform="translate(0 3.664)" fill="#b5fcff"/><rect width="2.354" height="2.354" transform="translate(2.354 3.664)" fill="#8cf2ff"/></g><path d="M128.4,220.7h0a1.177,1.177,0,0,1-1.177-1.177V208.612h2.354v10.907A1.177,1.177,0,0,1,128.4,220.7Z" transform="translate(-117.536 -192.722)" fill="#484b63"/><path d="M66.544,74.882A6.278,6.278,0,1,1,72.821,68.6,6.285,6.285,0,0,1,66.544,74.882Z" transform="translate(-55.675 -57.579)" fill="#b5fcff"/><path d="M128.4,62.326a6.284,6.284,0,0,0-1.177.112,6.277,6.277,0,0,1,0,12.331A6.277,6.277,0,1,0,128.4,62.326Z" transform="translate(-117.536 -57.579)" fill="#71f6fc"/><path d="M59.615,54.826a6.849,6.849,0,1,0,6.849,6.849A6.857,6.857,0,0,0,59.615,54.826Zm0,12.555a5.706,5.706,0,1,1,5.706-5.706A5.713,5.713,0,0,1,59.615,67.381Z" transform="translate(-48.747 -50.65)" fill="#484b63"/></g></g></svg>